<?xml version="1.0" encoding="utf-8"?>
<!-- Generator: Adobe Illustrator 17.1.0, SVG Export Plug-In . SVG Version: 6.00 Build 0)  -->
<!DOCTYPE svg PUBLIC "-//W3C//DTD SVG 1.1//EN" "http://www.w3.org/Graphics/SVG/1.1/DTD/svg11.dtd">
<svg version="1.1" id="Layer_1" xmlns="http://www.w3.org/2000/svg" xmlns:xlink="http://www.w3.org/1999/xlink" x="0px" y="0px"
	 viewBox="0 0 800 600" enable-background="new 0 0 800 600" xml:space="preserve">
<path d="M291.6,385.9c-3-12.5,7.7-28.5,16.2-37.6c-0.1-1,0-1.7-0.2-2.3c-2.2-7.1,0.5-12.6,6.2-16.5c4.2-2.9,8.8-5.7,13.6-7.2
	c24.2-7.6,48.5-7.8,72.6,0.3c8.8,2.9,19,8.9,19.2,19.3c0.3,11.3-3.1,22.9-5.1,34c-2.2,12.3-4.4,24.6-6.5,36.9
	c-0.8,4.6-3.3,7.6-7.2,9.5c-2.4,1.2-4.9,2.2-7.4,3c-13.6,4.2-27.5,4.7-41.5,3.5c-8.3-0.7-16.5-2.2-24.2-5.5
	c-7.5-3.3-10.2-8.2-9-16.3c0.7-0.3,1.5-0.6,2.3-0.8c10.5-1.8,19.3-6.9,27.6-13.2c2.6-2,4.8-4.1,8.5-4.5c4-0.4,6.5-5,5.8-8.6
	c-0.7-3.7-4.2-6.5-7.8-6.4c-4,0.1-7.1,3.2-7.5,7.3c-0.1,1.3,0,2.6,0,4c-5.9,5.5-12,10.5-19.4,13.8c-8.1,3.6-18.1,3.6-26-0.5
	C295.9,394.8,292.8,390.6,291.6,385.9z M363,356.9c11.6-0.5,23.6-1.2,34.7-6.5c4.2-2,9-4.3,8.8-9.8c-0.2-5.1-4.8-7.2-8.9-9.2
	c-7.9-3.8-16.5-5.2-25.1-5.8c-14.4-1.2-28.6-0.3-42.2,5c-2.9,1.1-5.7,2.8-8.1,4.8c-4,3.4-4.2,7.3-0.2,10.6c3.1,2.6,6.9,4.6,10.7,6.1
	C342.3,355.8,352.5,356.6,363,356.9z M309.7,360c-4.8,5.1-7.7,9.9-9.1,15.5c-2.1,8.8,4.7,16.1,14.1,14.7
	C313.1,380.5,311.5,370.7,309.7,360z"/>
<path fill="#FFFFFF" d="M309.7,360c1.8,10.7,3.4,20.5,5,30.3c-9.3,1.3-16.1-6-14.1-14.7C302,369.9,304.9,365.1,309.7,360z"/>
</svg>
