<?xml version="1.0" encoding="UTF-8" standalone="no"?>
<svg width="40px" height="27px" viewBox="0 0 40 27" version="1.1" xmlns="http://www.w3.org/2000/svg" xmlns:xlink="http://www.w3.org/1999/xlink" xmlns:sketch="http://www.bohemiancoding.com/sketch/ns">
    <!-- Generator: Sketch 3.2.2 (9983) - http://www.bohemiancoding.com/sketch -->
    <title>Artboard 1</title>
    <desc>Created with Sketch.</desc>
    <defs></defs>
    <g id="Page-1" stroke="none" stroke-width="1" fill="none" fill-rule="evenodd" sketch:type="MSPage">
        <g id="Artboard-1" sketch:type="MSArtboardGroup" fill="#CA406E">
            <path d="M0.924346193,24.0788975 C1.18321844,24.005115 1.52047146,23.5781791 2.19965156,23.0874894 C2.61672352,22.7851958 3.89095026,21.8227993 5.65343882,21.1505185 C7.41628693,20.4778796 8.23173451,20.4599712 8.86453334,20.3439249 C10.2505785,20.0903421 11.7225549,20.2794547 12.7605607,20.5283812 C14.468758,20.9388414 15.5743582,21.8872694 17.4191825,24.0695852 C20.0025119,27.1261883 22.3977992,27.446032 24.751739,26.5875041 C27.0129162,25.7619275 30.1607308,21.7042458 33.5825186,17.7253609 C34.1301053,17.0892551 39.5977029,10.7912344 39.9169787,10.4312758 C39.9471805,10.3979662 39.9683936,10.3746853 39.9683936,10.3746853 C39.9773822,10.3617913 39.9795395,10.3449574 39.9845731,10.3299144 C39.9845731,10.3281235 39.9849327,10.3266909 39.9856517,10.3249 C39.9888877,10.314155 39.995719,10.3052008 39.9967976,10.2933813 C39.9975167,10.2890833 40.003629,10.2786964 39.9967976,10.2554155 C39.9928426,10.2439541 39.9870899,10.2299856 39.9824158,10.2174497 C39.975944,10.2016903 39.9698318,10.190229 39.9698318,10.190229 C38.3116112,7.29372686 34.4756278,1.31626627 33.7159097,0.135387387 C33.7026065,0.114971829 33.6583825,0.0318769245 33.5584291,0.00931235997 C33.5591482,0.00787968921 33.5598673,0.00644701844 33.5605863,0.00501434768 C33.5465641,0.00214900615 33.5311037,0 33.5145646,0 L33.5142051,0 C33.5131264,0 33.5124073,0.000716335382 33.5113287,0.00107450307 C33.5098905,0.00107450307 33.5080928,0.00214900615 33.5062951,0.00214900615 C33.4502061,0.00465617999 33.4113753,0.0286534153 33.3912407,0.0408311168 C33.3901621,0.0415474522 33.3883644,0.0426219553 33.3865667,0.0436964583 C33.3847689,0.0447709614 33.3822521,0.0458454645 33.381533,0.0465617999 C33.0946163,0.212751609 32.7289592,0.428010391 32.3075728,0.677653272 C29.3578673,2.4244371 23.70043,5.84672939 23.6346333,5.89257486 C23.6162965,5.90582706 23.6011957,5.91728843 23.5896902,5.92839163 C23.5878925,5.9298243 23.587533,5.93125697 23.5860948,5.93268964 C23.5799825,5.93985299 23.5753084,5.94522551 23.5709939,5.95167253 C23.5695557,5.95453787 23.5663198,5.95740321 23.5648816,5.95919405 C23.5533762,5.98175861 23.5530167,6.00575585 23.5605671,6.03978178 C23.5605671,6.04193078 23.5648816,6.06091367 23.5724321,6.09673044 C23.7784512,7.0849151 27.2991138,23.3561151 27.4209995,23.9191548 C26.9967367,24.3396436 26.5681593,24.7347026 26.136346,25.0695894 C25.5452543,25.5273277 24.9800499,25.8987476 24.4317441,26.0810549 C23.6817337,26.3306978 23.0773389,26.4449533 22.4481355,26.4077039 C20.5598063,26.2941647 19.1050881,25.0470248 18.1037558,23.8468049 C16.4800515,21.899089 15.0490633,19.7053119 10.8610856,19.3632617 C6.1204875,18.9757243 2.5113769,21.031965 1.31768819,21.9628428 C0.73270882,22.4184321 0.33864773,22.6666423 0.142695819,22.9359844 C-0.061166077,23.2157134 -0.0503797333,23.595013 0.199503896,23.8614898 C0.44974707,24.1272502 0.701068878,24.1422932 0.924346193,24.0788975" id="Fill-2" sketch:type="MSShapeGroup"></path>
        </g>
    </g>
</svg>