<?xml version="1.0" encoding="UTF-8" standalone="no"?>
<svg width="203px" height="57px" viewBox="0 0 203 57" version="1.1" xmlns="http://www.w3.org/2000/svg" xmlns:xlink="http://www.w3.org/1999/xlink" xmlns:sketch="http://www.bohemiancoding.com/sketch/ns">
    <!-- Generator: Sketch 3.2.2 (9983) - http://www.bohemiancoding.com/sketch -->
    <title>Imported Layers</title>
    <desc>Created with Sketch.</desc>
    <defs></defs>
    <g id="Page-1" stroke="none" stroke-width="1" fill="none" fill-rule="evenodd" sketch:type="MSPage">
        <g id="Imported-Layers" sketch:type="MSLayerGroup">
            <path d="M100.391745,56.41689 C103.51351,56.01333 106.550549,54.80208 109.169078,52.78485 C109.725765,52.35621 109.791725,51.54111 109.295314,51.0435 L104.489275,46.22586 C103.994569,45.72996 103.182569,45.79266 102.754961,46.34784 C100.783529,48.90657 99.532549,51.90762 99.0981176,55.10817 C98.9951961,55.8657 99.6354706,56.51493 100.391745,56.41689" id="Fill-1" fill="#FFFFFF" sketch:type="MSShapeGroup"></path>
            <path d="M97.2239216,40.57431 L86.7793725,51.0435 C86.284098,51.53997 86.3477843,52.35564 86.9033333,52.78371 C89.4905882,54.77586 92.4861176,55.9797 95.5680784,56.39808 C96.2214314,56.48643 96.8116667,56.02302 96.8827451,55.36581 C97.3131961,51.39861 98.8592941,47.68278 101.378314,44.58711 C101.753608,44.12598 101.726882,43.45737 101.307235,43.03614 L98.8507647,40.57431 C98.401549,40.12344 97.6731373,40.12344 97.2239216,40.57431" id="Fill-2" fill="#FFFFFF" sketch:type="MSShapeGroup"></path>
            <path d="M83.5091961,27.06303 C81.4962549,29.68902 80.2879216,32.7351 79.8853333,35.86611 C79.788098,36.62364 80.4351961,37.26489 81.1903333,37.16286 C84.3826078,36.73023 87.3787059,35.47167 89.9318431,33.4932 C90.4851176,33.06399 90.5476667,32.2506 90.0529608,31.7547 L85.2463529,26.93649 C84.7499412,26.43945 83.9368039,26.505 83.5091961,27.06303" id="Fill-3" fill="#FFFFFF" sketch:type="MSShapeGroup"></path>
            <path d="M125.974863,27.57603 L125.974863,27.57603 C123.575255,25.1712 119.685275,25.1712 117.285667,27.57603 L116.656765,28.20702 C114.257157,30.61242 110.367176,30.61242 107.967569,28.20702 C105.568529,25.80219 105.568529,21.90225 107.967569,19.49742 L114.983863,12.46419 C117.383471,10.05936 117.383471,6.15942 114.983863,3.75459 C112.584255,1.34919 108.694275,1.34919 106.295235,3.75459 L86.5541961,23.54328 C86.1044118,23.99358 86.1044118,24.72375 86.5541961,25.17462 L91.5859804,30.21855 C92.079549,30.71331 92.891549,30.65346 93.3185882,30.09942 C94.4023922,28.69266 95.2723922,27.14568 95.9143725,25.47558 C96.1264706,24.92325 96.7172745,24.57726 97.2802157,24.75624 C97.8789804,24.94719 98.1871765,25.5987 97.9671176,26.17896 C97.1807059,28.24977 96.0826863,30.153 94.6935294,31.86015 C94.3193725,32.32014 94.3483725,32.98761 94.7668824,33.40713 L97.2239216,35.8701 C97.6731373,36.3204 98.401549,36.3204 98.8507647,35.8701 L104.038922,30.62382 C104.404549,30.25731 104.985118,30.17295 105.416137,30.45966 C106.009216,30.8541 106.067784,31.6635 105.591843,32.14002 L100.383784,37.40625 C99.9345686,37.85655 99.9345686,38.58729 100.383784,39.03759 L102.842529,41.50227 C103.260471,41.92122 103.925196,41.952 104.38351,41.57751 C105.175039,40.92999 106.01149,40.34289 106.886608,39.82248 C107.388137,39.52437 108.063098,39.64692 108.383235,40.13541 C108.726118,40.6581 108.560647,41.35578 108.029549,41.66985 C107.37449,42.05631 106.744451,42.48552 106.140569,42.95349 C105.588431,43.38156 105.528725,44.19495 106.022294,44.68971 L110.993235,49.67265 C111.442451,50.12295 112.170863,50.12295 112.620078,49.67265 L125.974863,36.2862 C128.373902,33.8808 128.373902,29.98143 125.974863,27.57603" id="Fill-4" fill="#FFFFFF" sketch:type="MSShapeGroup"></path>
            <path d="M91.6871961,34.8726 C88.5989804,37.3977 84.8926667,38.94981 80.934451,39.3813 C80.2793922,39.45312 79.817098,40.04478 79.9052353,40.69971 C80.3226078,43.78797 81.523549,46.79016 83.510902,49.38252 C83.9379412,49.93998 84.7510784,50.00382 85.2469216,49.50678 L95.690902,39.03759 C96.1401176,38.58729 96.1401176,37.85655 95.690902,37.40625 L93.2338627,34.94385 C92.8142157,34.52262 92.1472157,34.4964 91.6871961,34.8726" id="Fill-5" fill="#FFFFFF" sketch:type="MSShapeGroup"></path>
            <path d="M129.177373,11.2689 C127.212196,9.29898 124.025608,9.29898 122.060431,11.2689 C120.094686,13.23882 120.094686,16.4331 122.060431,18.40359 C124.025608,20.37351 127.212196,20.37351 129.177373,18.40359 C131.143118,16.4331 131.143118,13.23882 129.177373,11.2689" id="Fill-6" fill="#FFFFFF" sketch:type="MSShapeGroup"></path>
            <path d="M116.772765,18.66465 C115.786765,17.67627 114.188353,17.67627 113.202353,18.66465 C112.216353,19.65303 112.216353,21.2553 113.202353,22.24368 C114.188353,23.23206 115.786765,23.23206 116.772765,22.24368 C117.758765,21.2553 117.758765,19.65303 116.772765,18.66465" id="Fill-7" fill="#FFFFFF" sketch:type="MSShapeGroup"></path>
            <path d="M124.879118,0.97812 C123.893118,-0.01026 122.294706,-0.01026 121.308706,0.97812 C120.322706,1.9665 120.322706,3.56934 121.308706,4.55772 C122.294706,5.5461 123.893118,5.5461 124.879118,4.55772 C125.865118,3.56934 125.865118,1.9665 124.879118,0.97812" id="Fill-8" fill="#FFFFFF" sketch:type="MSShapeGroup"></path>
            <path d="M22.1059608,56.10168 L4.0474902,56.10168 C2.07207843,56.10168 0.479921569,54.50625 0.479921569,52.5255 L0.479921569,22.9824 C0.479921569,21.00222 2.07207843,19.40736 4.0474902,19.40736 L21.6664118,19.40736 C28.1965294,19.40736 32.0387451,23.42301 32.0387451,28.75935 C32.0387451,33.38091 29.0210392,36.46119 25.6183725,37.17654 C29.5140392,37.78188 32.7518039,41.74281 32.7518039,46.19907 C32.7518039,51.97545 28.9107255,56.10168 22.1059608,56.10168 L22.1059608,56.10168 Z M20.6787059,24.19308 L5.91429412,24.19308 L5.91429412,34.97577 L20.6787059,34.97577 C24.355451,34.97577 26.4411765,32.66556 26.4411765,29.58471 C26.4411765,26.55858 24.355451,24.19308 20.6787059,24.19308 L20.6787059,24.19308 Z M20.8981961,39.76263 L5.91429412,39.76263 L5.91429412,51.31539 L20.8981961,51.31539 C24.8490196,51.31539 27.1536667,49.11462 27.1536667,45.53844 C27.1536667,42.45759 25.0139216,39.76263 20.8981961,39.76263 L20.8981961,39.76263 Z" id="Fill-9" fill="#424242" sketch:type="MSShapeGroup"></path>
            <path d="M197.753275,19.18677 C195.997922,19.18677 194.350608,20.23215 193.691569,21.8823 L183.978275,45.53844 L174.319,21.8823 C173.550784,19.95741 171.574235,19.07676 169.544235,19.18677 C167.348765,19.18677 165.592275,21.00222 165.592275,23.09298 L165.592275,53.61021 C165.592275,55.15719 166.855765,56.49042 168.397314,56.42886 C169.878588,56.37015 171.026078,55.18398 171.026078,53.73618 L171.026078,27.10863 L181.191431,52.12422 C182.212118,54.63621 185.760353,54.63792 186.783882,52.12707 L196.985627,27.10863 L196.985627,53.73618 C196.985627,55.2216 198.192824,56.43114 199.728686,56.43114 C201.265686,56.43114 202.473451,55.2216 202.473451,53.73618 L202.473451,23.09298 C202.473451,20.67219 200.223392,19.07676 197.753275,19.18677" id="Fill-10" fill="#424242" sketch:type="MSShapeGroup"></path>
            <path d="M56.6586078,24.90957 C63.9057647,24.90957 69.8018627,30.8199 69.8018627,38.08455 C69.8018627,45.3492 63.9057647,51.25953 56.6586078,51.25953 C49.411451,51.25953 43.5153529,45.3492 43.5153529,38.08455 C43.5153529,30.8199 49.411451,24.90957 56.6586078,24.90957 M56.6586078,19.40736 C46.3681569,19.40736 38.0263922,27.76926 38.0263922,38.08455 C38.0263922,48.39984 46.3681569,56.76174 56.6586078,56.76174 C66.9490588,56.76174 75.2908235,48.39984 75.2908235,38.08455 C75.2908235,27.76926 66.9490588,19.40736 56.6586078,19.40736" id="Fill-11" fill="#424242" sketch:type="MSShapeGroup"></path>
            <path d="M140.84902,56.59245 C138.977667,56.59245 137.097784,56.30517 135.261118,55.72605 C130.535824,54.23607 126.672569,50.99049 124.381569,46.58667 C123.712294,45.29904 124.21098,43.71045 125.49551,43.03899 C126.779471,42.36696 128.364804,42.86685 129.035216,44.15505 C130.676843,47.31228 133.447765,49.63959 136.836216,50.70834 C140.225235,51.77766 143.825216,51.4596 146.975412,49.81344 C153.477098,46.4151 156.009196,38.34732 152.619039,31.82994 C150.977412,28.67214 148.207059,26.34483 144.818608,25.27608 C141.430157,24.20847 137.829608,24.52539 134.679412,26.17212 C133.39602,26.84358 131.810118,26.34369 131.139706,25.05549 C130.469863,23.76786 130.968549,22.17927 132.253647,21.50781 C136.646294,19.21185 141.667275,18.76839 146.393137,20.25837 C151.119,21.74892 154.982255,24.9945 157.272686,29.39775 C162.000255,38.48754 158.469078,49.7382 149.400608,54.47718 C146.715549,55.88109 143.793373,56.59245 140.84902,56.59245" id="Fill-12" fill="#424242" sketch:type="MSShapeGroup"></path>
        </g>
    </g>
</svg>